# xmcd CD database file
#
# Track frame offsets:
#	150
#	12300
#	22725
#	39142
#	50797
#	63330
#	81775
#	92615
#	102202
#	110510
#	120407
#	131075
#	146205
#	157180
#	171330
#	184562
#	196840
#	207755
#	218700
#	229612
#
# Disc length: 3195 seconds
#
# Revision: 0
# Processed by: cddbd v1.5.1PL0 Copyright (c) Steve Scherf et al.
# Submitted via: CdAid (MTCDDB.DLL V2003.12.21)
#
DISCID=0b0c7914
DTITLE=Jimmy C. Newman - Cajun Man
DYEAR=1996
DGENRE=Other
TTITLE0=Jambalaya
TTITLE1=The Happy Cajun
TTITLE2=Sugar Bee
TTITLE3=Boo Dan
TTITLE4=Jolie Blon
TTITLE5=Lache Pas La Patate
TTITLE6=Grand Chenier
TTITLE7=Louisiana Saturday Night
TTITLE8=Thibodeaux and his Cajun Band
TTITLE9=Alligator Man
TTITLE10=Louisiana Man
TTITLE11=Sweet Suzanna
TTITLE12=Diggi Liggi Lo
TTITLE13=Basile Waltz
TTITLE14=Daydreamin'
TTITLE15=A Cajun Man Can
TTITLE16=Big Bayou
TTITLE17=Alons A Lafayette
TTITLE18=Big Mamou
TTITLE19=Colinda
EXTD=20 Cajun Favourites ID3G:  12 YEAR: 1996
EXTT0=On the Bayou
EXTT1=
EXTT2=
EXTT3=
EXTT4=
EXTT5=
EXTT6=
EXTT7=
EXTT8=
EXTT9=
EXTT10=
EXTT11=
EXTT12=
EXTT13=
EXTT14=
EXTT15=
EXTT16=
EXTT17=
EXTT18=
EXTT19=
PLAYORDER=
